<svg width="21" height="18" viewBox="0 0 21 18" fill="none" xmlns="http://www.w3.org/2000/svg">
<g id="Compare_4">
<g id="Group">
<path id="Vector" d="M3.35707 5.4298C4.49164 5.4298 5.4114 4.50625 5.4114 3.367C5.4114 2.22775 4.49164 1.3042 3.35707 1.3042C2.22249 1.3042 1.30273 2.22775 1.30273 3.367C1.30273 4.50625 2.22249 5.4298 3.35707 5.4298Z" stroke="#F6F5F4" stroke-width="0.842105" stroke-linecap="round" stroke-linejoin="round"/>
<path id="Vector_2" d="M3.35707 11.0631C4.49164 11.0631 5.4114 10.1396 5.4114 9.0003C5.4114 7.86105 4.49164 6.9375 3.35707 6.9375C2.22249 6.9375 1.30273 7.86105 1.30273 9.0003C1.30273 10.1396 2.22249 11.0631 3.35707 11.0631Z" stroke="#F6F5F4" stroke-width="0.842105" stroke-linecap="round" stroke-linejoin="round"/>
<path id="Vector_3" d="M3.35707 16.6959C4.49164 16.6959 5.4114 15.7724 5.4114 14.6331C5.4114 13.4939 4.49164 12.5703 3.35707 12.5703C2.22249 12.5703 1.30273 13.4939 1.30273 14.6331C1.30273 15.7724 2.22249 16.6959 3.35707 16.6959Z" stroke="#F6F5F4" stroke-width="0.842105" stroke-linecap="round" stroke-linejoin="round"/>
<path id="Vector_4" d="M18.3324 1.76611H8.85247C8.05024 1.76611 7.3999 2.41913 7.3999 3.22467C7.3999 4.0302 8.05024 4.68322 8.85247 4.68322H18.3324C19.1346 4.68322 19.7849 4.0302 19.7849 3.22467C19.7849 2.41913 19.1346 1.76611 18.3324 1.76611Z" stroke="#F6F5F4" stroke-width="0.842105" stroke-linecap="round" stroke-linejoin="round"/>
<path id="Vector_5" d="M18.3324 7.41504H8.85247C8.05024 7.41504 7.3999 8.06806 7.3999 8.87359C7.3999 9.67913 8.05024 10.3321 8.85247 10.3321H18.3324C19.1346 10.3321 19.7849 9.67913 19.7849 8.87359C19.7849 8.06806 19.1346 7.41504 18.3324 7.41504Z" stroke="#F6F5F4" stroke-width="0.842105" stroke-linecap="round" stroke-linejoin="round"/>
<path id="Vector_6" d="M18.3324 13.3169H8.85247C8.05024 13.3169 7.3999 13.9699 7.3999 14.7754C7.3999 15.581 8.05024 16.234 8.85247 16.234H18.3324C19.1346 16.234 19.7849 15.581 19.7849 14.7754C19.7849 13.9699 19.1346 13.3169 18.3324 13.3169Z" stroke="#F6F5F4" stroke-width="0.842105" stroke-linecap="round" stroke-linejoin="round"/>
</g>
</g>
</svg>
