<svg width="20" height="20" viewBox="0 0 20 20" fill="none" xmlns="http://www.w3.org/2000/svg">
<path id="Vector" d="M10 0C12.6522 0 15.1957 1.05357 17.0711 2.92893C18.9464 4.8043 20 7.34784 20 10C20 12.6522 18.9464 15.1957 17.0711 17.0711C15.1957 18.9464 12.6522 20 10 20C7.34784 20 4.8043 18.9464 2.92893 17.0711C1.05357 15.1957 0 12.6522 0 10C0 7.34784 1.05357 4.8043 2.92893 2.92893C4.8043 1.05357 7.34784 0 10 0ZM5 10C5 10.2273 5.09031 10.4453 5.25105 10.6061C5.4118 10.7668 5.62981 10.8571 5.85714 10.8571H14.1429C14.3702 10.8571 14.5882 10.7668 14.749 10.6061C14.9097 10.4453 15 10.2273 15 10C15 9.77267 14.9097 9.55465 14.749 9.39391C14.5882 9.23316 14.3702 9.14286 14.1429 9.14286H5.85714C5.74458 9.14286 5.63312 9.16503 5.52913 9.2081C5.42514 9.25118 5.33064 9.31432 5.25105 9.39391C5.17146 9.4735 5.10832 9.56799 5.06525 9.67199C5.02217 9.77598 5 9.88744 5 10Z" fill="#943900"/>
</svg>
