<svg width="48" height="48" viewBox="0 0 48 48" fill="none" xmlns="http://www.w3.org/2000/svg">
<g id="bi:image-fill" clip-path="url(#clip0_330_2334)">
<path id="Vector" d="M0.00601196 9C0.00601196 7.4087 0.638153 5.88258 1.76337 4.75736C2.88859 3.63214 4.41471 3 6.00601 3H42.006C43.5973 3 45.1234 3.63214 46.2487 4.75736C47.3739 5.88258 48.006 7.4087 48.006 9V39C48.006 40.5913 47.3739 42.1174 46.2487 43.2426C45.1234 44.3679 43.5973 45 42.006 45H6.00601C4.41471 45 2.88859 44.3679 1.76337 43.2426C0.638153 42.1174 0.00601196 40.5913 0.00601196 39V9ZM3.00601 36V39C3.00601 39.7957 3.32208 40.5587 3.88469 41.1213C4.4473 41.6839 5.21036 42 6.00601 42H42.006C42.8017 42 43.5647 41.6839 44.1273 41.1213C44.6899 40.5587 45.006 39.7957 45.006 39V28.5L33.675 22.659C33.3937 22.5181 33.0752 22.4692 32.7645 22.5193C32.4539 22.5693 32.1668 22.7158 31.944 22.938L20.814 34.068L12.834 28.752C12.5459 28.5602 12.2003 28.4739 11.8558 28.5078C11.5114 28.5417 11.1892 28.6937 10.944 28.938L3.00601 36ZM18.006 16.5C18.006 15.3065 17.5319 14.1619 16.688 13.318C15.8441 12.4741 14.6995 12 13.506 12C12.3125 12 11.1679 12.4741 10.324 13.318C9.48012 14.1619 9.00601 15.3065 9.00601 16.5C9.00601 17.6935 9.48012 18.8381 10.324 19.682C11.1679 20.5259 12.3125 21 13.506 21C14.6995 21 15.8441 20.5259 16.688 19.682C17.5319 18.8381 18.006 17.6935 18.006 16.5Z" fill="#44413D"/>
</g>
<defs>
<clipPath id="clip0_330_2334">
<rect width="48" height="48" fill="white"/>
</clipPath>
</defs>
</svg>
